<svg width="25" height="24" viewBox="0 0 25 24" fill="none" xmlns="http://www.w3.org/2000/svg">
<path fill-rule="evenodd" clip-rule="evenodd" d="M8.25 7.5C8.25 6.94188 8.35993 6.38923 8.57351 5.8736C8.78709 5.35796 9.10015 4.88945 9.4948 4.4948C9.88944 4.10015 10.358 3.78709 10.8736 3.57351C11.3892 3.35993 11.9419 3.25 12.5 3.25C13.0581 3.25 13.6108 3.35993 14.1264 3.57351C14.642 3.78709 15.1106 4.10015 15.5052 4.4948C15.8999 4.88945 16.2129 5.35796 16.4265 5.8736C16.6401 6.38923 16.75 6.94188 16.75 7.5C16.75 8.62717 16.3022 9.70817 15.5052 10.5052C14.7082 11.3022 13.6272 11.75 12.5 11.75C11.3728 11.75 10.2918 11.3022 9.4948 10.5052C8.69777 9.70817 8.25 8.62717 8.25 7.5ZM12.5 4.75C11.7707 4.75 11.0712 5.03973 10.5555 5.55546C10.0397 6.07118 9.75 6.77065 9.75 7.5C9.75 8.22935 10.0397 8.92882 10.5555 9.44454C11.0712 9.96027 11.7707 10.25 12.5 10.25C13.2293 10.25 13.9288 9.96027 14.4445 9.44454C14.9603 8.92882 15.25 8.22935 15.25 7.5C15.25 6.77065 14.9603 6.07118 14.4445 5.55546C13.9288 5.03973 13.2293 4.75 12.5 4.75ZM8.5 14.75C7.90326 14.75 7.33097 14.9871 6.90901 15.409C6.48705 15.831 6.25 16.4033 6.25 17V18.188C6.25 18.206 6.263 18.222 6.281 18.225C10.4 18.897 14.601 18.897 18.719 18.225C18.7277 18.2236 18.7357 18.219 18.7414 18.2123C18.7471 18.2055 18.7501 18.1969 18.75 18.188V17C18.75 16.4033 18.5129 15.831 18.091 15.409C17.669 14.9871 17.0967 14.75 16.5 14.75H16.16C16.1332 14.7498 16.1065 14.7538 16.081 14.762L15.216 15.045C13.4512 15.6212 11.5488 15.6212 9.784 15.045L8.918 14.762C8.89311 14.754 8.86713 14.75 8.841 14.75H8.5ZM4.75 17C4.75 16.0054 5.14509 15.0516 5.84835 14.3483C6.55161 13.6451 7.50544 13.25 8.5 13.25H8.84C9.025 13.25 9.209 13.28 9.384 13.336L10.25 13.619C11.712 14.0962 13.288 14.0962 14.75 13.619L15.616 13.336C15.791 13.279 15.975 13.25 16.159 13.25H16.5C17.4946 13.25 18.4484 13.6451 19.1517 14.3483C19.8549 15.0516 20.25 16.0054 20.25 17V18.188C20.25 18.942 19.704 19.584 18.96 19.705C14.6817 20.4034 10.3183 20.4034 6.04 19.705C5.67992 19.6464 5.35244 19.4616 5.11611 19.1837C4.87978 18.9057 4.75001 18.5528 4.75 18.188V17Z" fill="#1E1E1E"/>
</svg>
