<svg width="25" height="24" viewBox="0 0 25 24" fill="none" xmlns="http://www.w3.org/2000/svg">
<path d="M3.5 15V16.5H6.9395L2 21.4395L3.0605 22.5L8 17.5605V21H9.5V15H3.5ZM18.5 15.75H20V19.5H18.5V15.75ZM15.5 12H17V19.5H15.5V12ZM12.5 13.5H14V19.5H12.5V13.5Z" fill="#1E1E1E"/>
<path d="M21.5 1.5H3.5C3.1023 1.5004 2.721 1.65856 2.43978 1.93978C2.15856 2.221 2.0004 2.6023 2 3V12H3.5V9.75H21.5007L21.5015 21H12.5V22.5H21.5C21.8976 22.4994 22.2788 22.3412 22.56 22.06C22.8412 21.7788 22.9994 21.3976 23 21V3C22.9996 2.6023 22.8414 2.221 22.5602 1.93978C22.279 1.65856 21.8977 1.5004 21.5 1.5ZM9.5 8.25H3.5V3H9.5V8.25ZM11 8.25V3H21.5V8.25H11Z" fill="#1E1E1E"/>
</svg>
