<svg width="25" height="24" viewBox="0 0 25 24" fill="none" xmlns="http://www.w3.org/2000/svg">
<path d="M8.15918 6.6075C8.50068 5.5315 9.36418 4.6415 10.4997 4.154V5.5C10.4997 5.63261 10.5524 5.75979 10.6461 5.85355C10.7399 5.94732 10.8671 6 10.9997 6C11.1323 6 11.2595 5.94732 11.3532 5.85355C11.447 5.75979 11.4997 5.63261 11.4997 5.5V3.5C11.4997 3.36739 11.5524 3.24021 11.6461 3.14645C11.7399 3.05268 11.8671 3 11.9997 3H12.9997C13.1323 3 13.2595 3.05268 13.3532 3.14645C13.447 3.24021 13.4997 3.36739 13.4997 3.5V5.5C13.4997 5.63261 13.5524 5.75979 13.6461 5.85355C13.7399 5.94732 13.8671 6 13.9997 6C14.1323 6 14.2595 5.94732 14.3532 5.85355C14.447 5.75979 14.4997 5.63261 14.4997 5.5V4.154C15.6517 4.6485 16.5232 5.5565 16.8547 6.6535C16.7262 6.7575 16.5117 6.8835 16.1772 7.0055C15.4312 7.2775 14.1797 7.5 12.2367 7.5C10.8372 7.5 9.71268 7.282 8.95368 7.005C8.58768 6.8715 8.32468 6.7305 8.15918 6.6075Z" fill="#1E1E1E"/>
<path fill-rule="evenodd" clip-rule="evenodd" d="M16.52 7.94489C16.9625 7.78289 17.3115 7.58889 17.5595 7.36589C17.843 7.63739 18 7.93589 18 8.24989C18 8.84889 17.428 9.39339 16.495 9.79639C16.5221 10.3378 16.4389 10.8791 16.2503 11.3874C16.0618 11.8957 15.7719 12.3604 15.3983 12.7532C15.0246 13.146 14.575 13.4587 14.0768 13.6724C13.5786 13.8861 13.0421 13.9963 12.5 13.9963C11.9579 13.9963 11.4214 13.8861 10.9232 13.6724C10.425 13.4587 9.97538 13.146 9.60175 12.7532C9.22811 12.3604 8.93822 11.8957 8.74969 11.3874C8.56115 10.8791 8.4779 10.3378 8.505 9.79639C7.572 9.39339 7 8.84889 7 8.24989C7 7.92489 7.168 7.61639 7.4705 7.33789L7.527 7.38289C7.799 7.59339 8.171 7.78389 8.612 7.94439C9.4975 8.26789 10.7415 8.49989 12.237 8.49989C14.241 8.49989 15.6215 8.27239 16.52 7.94489ZM9.503 10.1369C9.53754 10.9085 9.86838 11.6371 10.4266 12.171C10.9849 12.7048 11.7276 13.0028 12.5 13.0028C13.2724 13.0028 14.0151 12.7048 14.5734 12.171C15.1316 11.6371 15.4625 10.9085 15.497 10.1369C14.635 10.3669 13.605 10.4999 12.5 10.4999C11.395 10.4999 10.365 10.3664 9.503 10.1369ZM3.5 20.9999H14V15.2499L13 15.9999V17.9484C12.8361 17.9862 12.6682 18.0035 12.5 17.9999C12.2625 17.9999 12.1025 17.9749 12 17.9484V16.1109L9.6765 14.3039C6.76 14.8639 3.5 16.1689 3.5 17.9999V20.9999ZM7 19.9999H11V17.5899L7.7375 18.1339L8.6755 15.5549C8.10723 15.701 7.54781 15.8797 7 16.0899V19.9999ZM4.5 19.9999H6V16.5394L5.963 16.5589C5.431 16.8409 5.042 17.1284 4.797 17.3989C4.557 17.6649 4.5 17.8614 4.5 17.9999V19.9999Z" fill="#1E1E1E"/>
<path d="M16.785 12.8252C17.074 12.5302 17.475 12.8277 17.387 13.2312L17.374 13.2902C17.329 13.4958 17.3307 13.709 17.379 13.9139C17.4273 14.1188 17.5208 14.3102 17.6528 14.4742C17.7848 14.6382 17.9519 14.7705 18.1418 14.8614C18.3317 14.9523 18.5395 14.9995 18.75 14.9995C18.9605 14.9995 19.1683 14.9523 19.3582 14.8614C19.5481 14.7705 19.7152 14.6382 19.8472 14.4742C19.9792 14.3102 20.0727 14.1188 20.121 13.9139C20.1693 13.709 20.171 13.4958 20.126 13.2902L20.113 13.2312C20.025 12.8277 20.426 12.5307 20.715 12.8257C21.219 13.3391 21.501 14.0302 21.5 14.7497C21.5003 15.216 21.3819 15.6748 21.156 16.0828C20.93 16.4907 20.604 16.8345 20.2085 17.0817C20.069 17.1687 20 17.3357 20 17.5002V20.0002C20 20.2654 19.8946 20.5198 19.7071 20.7073C19.5196 20.8948 19.2652 21.0002 19 21.0002H18.5C18.2348 21.0002 17.9804 20.8948 17.7929 20.7073C17.6054 20.5198 17.5 20.2654 17.5 20.0002V17.5002C17.5 17.3357 17.431 17.1687 17.2915 17.0817C16.896 16.8345 16.5699 16.4906 16.3439 16.0826C16.118 15.6745 15.9996 15.2156 16 14.7492C16 14.0002 16.2995 13.3207 16.785 12.8252Z" fill="#1E1E1E"/>
</svg>
