<svg width="25" height="24" viewBox="0 0 25 24" fill="none" xmlns="http://www.w3.org/2000/svg">
<path d="M3.672 20.828C4.843 22 6.729 22 10.5 22H14.5C18.271 22 20.157 22 21.328 20.828C22.5 19.657 22.5 17.771 22.5 14C22.5 12.83 22.5 11.842 22.465 11M21.328 7.172C20.157 6 18.271 6 14.5 6H10.5C6.729 6 4.843 6 3.672 7.172C2.5 8.343 2.5 10.229 2.5 14C2.5 15.17 2.5 16.158 2.535 17M12.5 2C14.386 2 15.328 2 15.914 2.586C16.5 3.172 16.5 4.114 16.5 6M9.086 2.586C8.5 3.172 8.5 4.114 8.5 6" stroke="#1E1E1E" stroke-width="1.5" stroke-linecap="round"/>
<path d="M12.5 17.333C13.605 17.333 14.5 16.587 14.5 15.667C14.5 14.747 13.605 14 12.5 14C11.395 14 10.5 13.254 10.5 12.333C10.5 11.413 11.395 10.667 12.5 10.667M12.5 17.333C11.395 17.333 10.5 16.587 10.5 15.667M12.5 17.333V18M12.5 10.667V10M12.5 10.667C13.605 10.667 14.5 11.413 14.5 12.333" stroke="#1E1E1E" stroke-width="1.5" stroke-linecap="round"/>
</svg>
