<svg width="25" height="24" viewBox="0 0 25 24" fill="none" xmlns="http://www.w3.org/2000/svg">
<path d="M10.75 3.5H14.25C14.4489 3.5 14.6397 3.57902 14.7803 3.71967C14.921 3.86032 15 4.05109 15 4.25V6H10V4.25C10 4.05109 10.079 3.86032 10.2197 3.71967C10.3603 3.57902 10.5511 3.5 10.75 3.5ZM8.5 4.25V6H6.75C5.88805 6 5.0614 6.34241 4.4519 6.9519C3.84241 7.5614 3.5 8.38805 3.5 9.25V16.75C3.5 17.612 3.84241 18.4386 4.4519 19.0481C5.0614 19.6576 5.88805 20 6.75 20H18.25C19.112 20 19.9386 19.6576 20.5481 19.0481C21.1576 18.4386 21.5 17.612 21.5 16.75V9.25C21.5 8.38805 21.1576 7.5614 20.5481 6.9519C19.9386 6.34241 19.112 6 18.25 6H16.5V4.25C16.5 3.65326 16.2629 3.08097 15.841 2.65901C15.419 2.23705 14.8467 2 14.25 2H10.75C10.1533 2 9.58097 2.23705 9.15901 2.65901C8.73705 3.08097 8.5 3.65326 8.5 4.25ZM20 9.25V10.75C20 11.2141 19.8156 11.6592 19.4874 11.9874C19.1592 12.3156 18.7141 12.5 18.25 12.5H14.5V12C14.5 11.7348 14.3946 11.4804 14.2071 11.2929C14.0196 11.1054 13.7652 11 13.5 11H11.5C11.2348 11 10.9804 11.1054 10.7929 11.2929C10.6054 11.4804 10.5 11.7348 10.5 12V12.5H6.75C6.28587 12.5 5.84075 12.3156 5.51256 11.9874C5.18437 11.6592 5 11.2141 5 10.75V9.25C5 8.284 5.784 7.5 6.75 7.5H18.25C19.216 7.5 20 8.284 20 9.25ZM20 13.49V16.75C20 17.2141 19.8156 17.6592 19.4874 17.9874C19.1592 18.3156 18.7141 18.5 18.25 18.5H6.75C6.28587 18.5 5.84075 18.3156 5.51256 17.9874C5.18437 17.6592 5 17.2141 5 16.75V13.49C5.505 13.812 6.106 14 6.75 14H10.5C10.5 14.2652 10.6054 14.5196 10.7929 14.7071C10.9804 14.8946 11.2348 15 11.5 15H13.5C13.7652 15 14.0196 14.8946 14.2071 14.7071C14.3946 14.5196 14.5 14.2652 14.5 14H18.25C18.894 14 19.495 13.812 20 13.49Z" fill="#1E1E1E"/>
</svg>
