<svg width="25" height="24" viewBox="0 0 25 24" fill="none" xmlns="http://www.w3.org/2000/svg">
<path fill-rule="evenodd" clip-rule="evenodd" d="M12.5 8.25C11.5054 8.25 10.5516 8.64509 9.84835 9.34835C9.14509 10.0516 8.75 11.0054 8.75 12C8.75 12.9946 9.14509 13.9484 9.84835 14.6517C10.5516 15.3549 11.5054 15.75 12.5 15.75C13.4946 15.75 14.4484 15.3549 15.1517 14.6517C15.8549 13.9484 16.25 12.9946 16.25 12C16.25 11.0054 15.8549 10.0516 15.1517 9.34835C14.4484 8.64509 13.4946 8.25 12.5 8.25ZM10.25 12C10.25 11.4033 10.4871 10.831 10.909 10.409C11.331 9.98705 11.9033 9.75 12.5 9.75C13.0967 9.75 13.669 9.98705 14.091 10.409C14.5129 10.831 14.75 11.4033 14.75 12C14.75 12.5967 14.5129 13.169 14.091 13.591C13.669 14.0129 13.0967 14.25 12.5 14.25C11.9033 14.25 11.331 14.0129 10.909 13.591C10.4871 13.169 10.25 12.5967 10.25 12Z" fill="#1E1E1E"/>
<path fill-rule="evenodd" clip-rule="evenodd" d="M12.4748 1.25C12.0298 1.25 11.6588 1.25 11.3548 1.27C11.044 1.28294 10.7376 1.34714 10.4478 1.46C10.114 1.59809 9.81075 1.80057 9.55526 2.05589C9.29978 2.3112 9.09709 2.61434 8.95877 2.948C8.81377 3.298 8.77477 3.668 8.75877 4.07C8.75717 4.21702 8.71826 4.36123 8.64567 4.48909C8.57308 4.61695 8.4692 4.72428 8.34377 4.801C8.21466 4.8715 8.06974 4.90803 7.92263 4.90716C7.77552 4.90628 7.63104 4.86803 7.50277 4.796C7.14677 4.608 6.80678 4.457 6.43078 4.407C6.07272 4.3599 5.70889 4.38379 5.36007 4.4773C5.01125 4.57081 4.68426 4.73212 4.39777 4.952C4.15555 5.14688 3.94709 5.38034 3.78077 5.643C3.61077 5.897 3.42477 6.218 3.20277 6.603L3.17777 6.647C2.95477 7.032 2.76977 7.353 2.63577 7.627C2.49577 7.913 2.38577 8.195 2.34577 8.507C2.25038 9.22999 2.44605 9.96127 2.88977 10.54C3.12077 10.841 3.42177 11.06 3.76177 11.274C3.88853 11.3489 3.99415 11.4549 4.06867 11.5819C4.14319 11.7089 4.18418 11.8528 4.18777 12C4.18418 12.1472 4.14319 12.2911 4.06867 12.4181C3.99415 12.5451 3.88853 12.6511 3.76177 12.726C3.42177 12.94 3.12177 13.159 2.88977 13.46C2.66989 13.7465 2.50859 14.0735 2.41508 14.4223C2.32157 14.7711 2.29768 15.1349 2.34477 15.493C2.38577 15.805 2.49477 16.087 2.63477 16.373C2.76977 16.647 2.95477 16.968 3.17777 17.353L3.20277 17.397C3.42477 17.782 3.61077 18.103 3.78077 18.357C3.95777 18.62 4.14777 18.857 4.39777 19.047C4.68418 19.2671 5.01114 19.4285 5.35996 19.5222C5.70879 19.6159 6.07265 19.64 6.43078 19.593C6.80678 19.543 7.14677 19.393 7.50277 19.204C7.63089 19.1321 7.77519 19.0939 7.92213 19.093C8.06906 19.0921 8.21381 19.1286 8.34277 19.199C8.46889 19.2751 8.57343 19.3823 8.64642 19.5102C8.71941 19.6382 8.75844 19.7827 8.75978 19.93C8.77478 20.332 8.81378 20.702 8.95977 21.052C9.09786 21.3857 9.30035 21.689 9.55566 21.9445C9.81098 22.2 10.1141 22.4027 10.4478 22.541C10.7378 22.661 11.0378 22.708 11.3548 22.729C11.6588 22.75 12.0298 22.75 12.4748 22.75H12.5248C12.9698 22.75 13.3408 22.75 13.6448 22.73C13.9628 22.708 14.2618 22.661 14.5518 22.54C14.8855 22.4019 15.1888 22.1994 15.4443 21.9441C15.6998 21.6888 15.9025 21.3857 16.0408 21.052C16.1858 20.702 16.2248 20.332 16.2408 19.93C16.2422 19.7828 16.281 19.6384 16.3536 19.5103C16.4262 19.3823 16.5302 19.2748 16.6558 19.198C16.785 19.1276 16.9299 19.0913 17.077 19.0923C17.2242 19.0934 17.3686 19.1318 17.4968 19.204C17.8528 19.392 18.1928 19.543 18.5688 19.592C19.2918 19.6874 20.023 19.4917 20.6018 19.048C20.8518 18.856 21.0418 18.62 21.2188 18.357C21.3888 18.103 21.5748 17.782 21.7968 17.397L21.8218 17.353C22.0448 16.968 22.2298 16.647 22.3638 16.373C22.5038 16.087 22.6138 15.804 22.6538 15.493C22.7492 14.77 22.5535 14.0387 22.1098 13.46C21.8788 13.159 21.5778 12.94 21.2378 12.726C21.111 12.6511 21.0054 12.5451 20.9309 12.4181C20.8564 12.2911 20.8154 12.1472 20.8118 12C20.8118 11.722 20.9638 11.446 21.2378 11.274C21.5778 11.06 21.8778 10.841 22.1098 10.54C22.3297 10.2535 22.491 9.92653 22.5845 9.5777C22.678 9.22888 22.7019 8.86506 22.6548 8.507C22.6072 8.19971 22.5092 7.90238 22.3648 7.627C22.194 7.29475 22.013 6.96792 21.8218 6.647L21.7968 6.603C21.6141 6.27709 21.4213 5.95693 21.2188 5.643C21.0525 5.38062 20.844 5.14749 20.6018 4.953C20.3154 4.73294 19.9884 4.57146 19.6396 4.47778C19.2908 4.38409 18.9269 4.36004 18.5688 4.407C18.1928 4.457 17.8528 4.607 17.4968 4.796C17.3686 4.86786 17.2243 4.90601 17.0774 4.90688C16.9305 4.90776 16.7858 4.87132 16.6568 4.801C16.531 4.72452 16.4267 4.6173 16.3538 4.48942C16.2808 4.36154 16.2416 4.21721 16.2398 4.07C16.2248 3.668 16.1858 3.298 16.0398 2.948C15.9017 2.61425 15.6992 2.31097 15.4439 2.05549C15.1886 1.8 14.8854 1.59731 14.5518 1.459C14.2618 1.339 13.9618 1.292 13.6448 1.271C13.3408 1.25 12.9698 1.25 12.5248 1.25H12.4748ZM11.0218 2.845C11.0988 2.813 11.2158 2.784 11.4568 2.767C11.7038 2.75 12.0238 2.75 12.4998 2.75C12.9758 2.75 13.2958 2.75 13.5428 2.767C13.7838 2.784 13.9008 2.813 13.9778 2.845C14.2848 2.972 14.5278 3.215 14.6548 3.522C14.6948 3.618 14.7278 3.769 14.7408 4.126C14.7708 4.918 15.1798 5.681 15.9058 6.1C16.6318 6.52 17.4968 6.492 18.1978 6.122C18.5138 5.955 18.6608 5.908 18.7648 5.895C19.0933 5.85158 19.4257 5.94043 19.6888 6.142C19.7548 6.193 19.8388 6.28 19.9738 6.48C20.1128 6.686 20.2728 6.963 20.5108 7.375C20.7488 7.787 20.9078 8.065 21.0168 8.287C21.1238 8.504 21.1568 8.62 21.1668 8.703C21.2102 9.03157 21.1213 9.36392 20.9198 9.627C20.8558 9.71 20.7418 9.814 20.4398 10.004C19.7678 10.426 19.3118 11.162 19.3118 12C19.3118 12.838 19.7678 13.574 20.4398 13.996C20.7418 14.186 20.8558 14.29 20.9198 14.373C21.1218 14.636 21.2098 14.968 21.1668 15.297C21.1568 15.38 21.1228 15.497 21.0168 15.713C20.9078 15.936 20.7488 16.213 20.5108 16.625C20.2728 17.037 20.1118 17.314 19.9738 17.52C19.8388 17.72 19.7548 17.807 19.6888 17.858C19.4257 18.0596 19.0933 18.1484 18.7648 18.105C18.6608 18.092 18.5148 18.045 18.1978 17.878C17.4978 17.508 16.6318 17.48 15.9058 17.899C15.1798 18.319 14.7708 19.082 14.7408 19.874C14.7278 20.231 14.6948 20.382 14.6548 20.478C14.592 20.6298 14.4998 20.7677 14.3837 20.8839C14.2675 21.0001 14.1296 21.0922 13.9778 21.155C13.9008 21.187 13.7838 21.216 13.5428 21.233C13.2958 21.25 12.9758 21.25 12.4998 21.25C12.0238 21.25 11.7038 21.25 11.4568 21.233C11.2158 21.216 11.0988 21.187 11.0218 21.155C10.87 21.0922 10.7321 21.0001 10.6159 20.8839C10.4997 20.7677 10.4076 20.6298 10.3448 20.478C10.3048 20.382 10.2718 20.231 10.2588 19.874C10.2288 19.082 9.81977 18.319 9.09377 17.9C8.36777 17.48 7.50278 17.508 6.80177 17.878C6.48577 18.045 6.33878 18.092 6.23478 18.105C5.90621 18.1484 5.57385 18.0596 5.31077 17.858C5.24477 17.807 5.16077 17.72 5.02577 17.52C4.83769 17.2272 4.6586 16.9287 4.48878 16.625C4.25077 16.213 4.09177 15.935 3.98277 15.713C3.87577 15.496 3.84277 15.38 3.83277 15.297C3.78936 14.9684 3.8782 14.6361 4.07977 14.373C4.14377 14.29 4.25777 14.186 4.55977 13.996C5.23177 13.574 5.68778 12.838 5.68778 12C5.68778 11.162 5.23177 10.426 4.55977 10.004C4.25777 9.814 4.14377 9.71 4.07977 9.627C3.8782 9.36392 3.78936 9.03157 3.83277 8.703C3.84277 8.62 3.87677 8.503 3.98277 8.287C4.09177 8.064 4.25077 7.787 4.48878 7.375C4.72677 6.963 4.88777 6.686 5.02577 6.48C5.16077 6.28 5.24477 6.193 5.31077 6.142C5.57385 5.94043 5.90621 5.85158 6.23478 5.895C6.33878 5.908 6.48478 5.955 6.80177 6.122C7.50177 6.492 8.36777 6.52 9.09377 6.1C9.81977 5.681 10.2288 4.918 10.2588 4.126C10.2718 3.769 10.3048 3.618 10.3448 3.522C10.4718 3.215 10.7148 2.972 11.0218 2.845Z" fill="#1E1E1E"/>
</svg>
