<svg width="25" height="24" viewBox="0 0 25 24" fill="none" xmlns="http://www.w3.org/2000/svg">
<g clip-path="url(#clip0_1808_1109)">
<path d="M12.4993 3.99961C13.6812 3.99961 14.8515 4.2324 15.9434 4.68469C17.0354 5.13698 18.0275 5.79992 18.8632 6.63565C19.699 7.47137 20.3619 8.46353 20.8142 9.55546C21.2665 10.6474 21.4993 11.8177 21.4993 12.9996C21.4993 14.1815 21.2665 15.3518 20.8142 16.4438C20.3619 17.5357 19.699 18.5278 18.8632 19.3636C18.0275 20.1993 17.0354 20.8622 15.9434 21.3145C14.8515 21.7668 13.6812 21.9996 12.4993 21.9996C10.1123 21.9996 7.82315 21.0514 6.13533 19.3636C4.4475 17.6757 3.49929 15.3866 3.49929 12.9996C3.49929 10.6127 4.4475 8.32347 6.13533 6.63565C7.82315 4.94782 10.1123 3.99961 12.4993 3.99961ZM12.4993 5.99961C11.58 5.99961 10.6698 6.18067 9.8205 6.53245C8.97122 6.88423 8.19955 7.39985 7.54954 8.04986C6.89953 8.69987 6.38391 9.47154 6.03213 10.3208C5.68035 11.1701 5.49929 12.0804 5.49929 12.9996C5.49929 13.9189 5.68035 14.8291 6.03213 15.6784C6.38391 16.5277 6.89953 17.2993 7.54954 17.9494C8.19955 18.5994 8.97122 19.115 9.8205 19.4668C10.6698 19.8185 11.58 19.9996 12.4993 19.9996C14.3558 19.9996 16.1363 19.2621 17.449 17.9494C18.7618 16.6366 19.4993 14.8561 19.4993 12.9996C19.4993 11.1431 18.7618 9.36262 17.449 8.04986C16.1363 6.73711 14.3558 5.99961 12.4993 5.99961ZM12.4993 7.99961C12.7442 7.99964 12.9806 8.08956 13.1637 8.25232C13.3467 8.41508 13.4636 8.63936 13.4923 8.88261L13.4993 8.99961V12.5856L15.3123 14.3976C15.4935 14.5771 15.5993 14.8192 15.608 15.0742C15.6166 15.3291 15.5275 15.5778 15.3588 15.7692C15.1902 15.9606 14.9547 16.0803 14.7007 16.1038C14.4466 16.1273 14.1932 16.0528 13.9923 15.8956L13.8973 15.8116L11.7923 13.7066C11.6331 13.5479 11.5323 13.3399 11.5063 13.1166L11.4993 12.9866V8.99961C11.4993 8.73439 11.6046 8.48004 11.7922 8.2925C11.9797 8.10497 12.2341 7.99961 12.4993 7.99961ZM17.1333 2.96961C17.1991 2.85592 17.2867 2.75632 17.391 2.67649C17.4954 2.59666 17.6144 2.53818 17.7414 2.50437C17.8683 2.47057 18.0007 2.46211 18.1309 2.47948C18.2611 2.49685 18.3866 2.53971 18.5003 2.60561C19.7478 3.3279 20.8557 4.26813 21.7713 5.38161C21.931 5.58725 22.0041 5.84705 21.9753 6.10579C21.9464 6.36453 21.8177 6.60181 21.6167 6.76719C21.4156 6.93258 21.158 7.01303 20.8985 6.99144C20.6391 6.96986 20.3983 6.84794 20.2273 6.65161C19.4634 5.72294 18.5391 4.93885 17.4983 4.33661C17.2688 4.20383 17.1014 3.98534 17.033 3.72918C16.9645 3.47302 17.0006 3.19917 17.1333 2.96961ZM6.49929 2.60661C6.61295 2.54082 6.73845 2.49805 6.86864 2.48077C6.99882 2.46348 7.13114 2.472 7.25803 2.50585C7.38492 2.53969 7.5039 2.5982 7.60818 2.67803C7.71246 2.75786 7.8 2.85745 7.86579 2.97111C7.93158 3.08477 7.97434 3.21027 7.99163 3.34046C8.00892 3.47064 8.0004 3.60296 7.96655 3.72985C7.9327 3.85674 7.87419 3.97572 7.79436 4.08C7.71453 4.18428 7.61495 4.27182 7.50129 4.33761C6.46041 4.94015 5.53609 5.72458 4.77229 6.65361C4.6903 6.7592 4.58797 6.84729 4.47135 6.91265C4.35473 6.97802 4.22619 7.01933 4.09332 7.03416C3.96046 7.04899 3.82597 7.03702 3.69781 6.99897C3.56965 6.96092 3.45042 6.89756 3.34717 6.81263C3.24392 6.72771 3.15875 6.62294 3.09669 6.50453C3.03463 6.38612 2.99695 6.25646 2.98586 6.12323C2.97478 5.99001 2.99052 5.85591 3.03216 5.72887C3.0738 5.60183 3.14049 5.48443 3.22829 5.38361C4.14375 4.26975 5.25164 3.32918 6.49929 2.60661Z" fill="#1E1E1E"/>
</g>
<defs>
<clipPath id="clip0_1808_1109">
<rect width="24" height="24" fill="white" transform="translate(0.5)"/>
</clipPath>
</defs>
</svg>
