<svg width="15" height="17" viewBox="0 0 15 17" fill="none" xmlns="http://www.w3.org/2000/svg">
<path d="M5.30754 6.125H3.70024C2.81349 6.125 2.36978 6.125 2.03109 6.29757C1.73316 6.44937 1.49112 6.69142 1.33932 6.98934C1.16675 7.32803 1.16675 7.77174 1.16675 8.65849V13.0918C1.16675 13.9786 1.16675 14.4217 1.33932 14.7604C1.49112 15.0583 1.73316 15.3008 2.03109 15.4526C2.36945 15.625 2.81264 15.625 3.69766 15.625H11.3025C12.1875 15.625 12.6301 15.625 12.9684 15.4526C13.2664 15.3008 13.5092 15.0583 13.661 14.7604C13.8334 14.422 13.8334 13.9795 13.8334 13.0945V8.65588C13.8334 7.77087 13.8334 7.3277 13.661 6.98934C13.5092 6.69142 13.2664 6.44937 12.9684 6.29757C12.6297 6.125 12.187 6.125 11.3002 6.125H9.69215M5.30754 6.125H9.69215M5.30754 6.125C5.20664 6.125 5.12508 6.04321 5.12508 5.94231V3.75C5.12508 2.43832 6.18841 1.375 7.50008 1.375C8.81176 1.375 9.87508 2.43832 9.87508 3.75V5.94231C9.87508 6.04321 9.79305 6.125 9.69215 6.125" stroke="#42B883" stroke-width="1.67647" stroke-linecap="round" stroke-linejoin="round"/>
</svg>
